# Blender 4.0.2
# www.blender.org
mtllib самалётик.mtl
o Куб
v -1.000000 -1.000000 1.000000
v -1.000000 1.000000 1.000000
v -1.000000 -1.000000 -1.000000
v -1.000000 1.000000 -1.000000
v 1.000000 -1.000000 1.000000
v 1.000000 1.000000 1.000000
v 1.000000 -1.000000 -1.000000
v 1.000000 1.000000 -1.000000
v -1.000000 1.000000 -3.000000
v -1.000000 -1.000000 -3.000000
v 1.000000 -1.000000 -3.000000
v 1.000000 1.000000 -3.000000
v -1.000000 1.000000 -5.000000
v -1.000000 -1.000000 -5.000000
v 1.000000 -1.000000 -5.000000
v 1.000000 1.000000 -5.000000
v -1.000000 1.000000 -7.000000
v -1.000000 -1.000000 -7.000000
v 1.000000 -1.000000 -7.000000
v 1.000000 1.000000 -7.000000
v -1.000000 1.000000 -9.000000
v -1.000000 -1.000000 -9.000000
v 1.000000 -1.000000 -9.000000
v 1.000000 1.000000 -9.000000
v -1.000000 2.935907 1.000000
v -1.000000 2.935907 -1.000000
v 1.000000 2.935907 -1.000000
v 1.000000 2.935907 1.000000
v -1.000000 2.935907 -3.000000
v 1.000000 2.935907 -3.000000
v -1.000000 2.935907 -5.000000
v 1.000000 2.935907 -5.000000
v -1.000000 2.935907 -7.000000
v 1.000000 2.935907 -7.000000
v -1.000000 2.935907 -9.000000
v 1.000000 2.935907 -9.000000
v -1.000000 6.085367 -3.000000
v 1.000000 6.085367 -3.000000
v -1.000000 6.085367 -5.000000
v 1.000000 6.085367 -5.000000
v 1.000000 -2.419584 -1.000000
v -1.000000 -2.419584 -1.000000
v 1.000000 -2.419584 -3.000000
v -1.000000 -2.419584 -3.000000
v 1.000000 -2.419584 -5.000000
v -1.000000 -2.419584 -5.000000
v 1.000000 -2.419584 -7.000000
v -1.000000 -2.419584 -7.000000
vn -1.0000 -0.0000 -0.0000
vn -0.0000 1.0000 -0.0000
vn 1.0000 -0.0000 -0.0000
vn -0.0000 -0.0000 1.0000
vn -0.0000 -1.0000 -0.0000
vn -0.0000 -0.0000 -1.0000
vt 0.375000 0.000000
vt 0.625000 0.000000
vt 0.625000 0.250000
vt 0.375000 0.250000
vt 0.875000 0.500000
vt 0.625000 0.500000
vt 0.375000 0.500000
vt 0.625000 0.750000
vt 0.375000 0.750000
vt 0.625000 1.000000
vt 0.375000 1.000000
vt 0.125000 0.500000
vt 0.125000 0.750000
vt 0.875000 0.750000
s 0
f 1/1/1 2/2/1 4/3/1 3/4/1
f 4/5/2 8/6/2 12/6/2 9/5/2
f 7/7/3 8/6/3 6/8/3 5/9/3
f 5/9/4 6/8/4 2/10/4 1/11/4
f 3/12/5 7/7/5 5/9/5 1/13/5
f 2/10/4 6/8/4 28/8/4 25/10/4
f 11/7/5 10/12/5 14/12/5 15/7/5
f 3/4/1 4/3/1 9/3/1 10/4/1
f 8/6/3 7/7/3 11/7/3 12/6/3
f 15/7/4 14/12/4 46/12/4 45/7/4
f 13/5/2 16/6/2 20/6/2 17/5/2
f 24/6/6 21/3/6 35/3/6 36/6/6
f 10/4/1 9/3/1 13/3/1 14/4/1
f 12/6/3 11/7/3 15/7/3 16/6/3
f 18/4/1 17/3/1 21/3/1 22/4/1
f 14/4/1 13/3/1 17/3/1 18/4/1
f 16/6/3 15/7/3 19/7/3 20/6/3
f 14/4/1 18/4/1 48/4/1 46/4/1
f 22/4/6 21/3/6 24/6/6 23/7/6
f 20/6/3 19/7/3 23/7/3 24/6/3
f 19/7/5 18/12/5 22/12/5 23/7/5
f 9/5/4 12/6/4 30/6/4 29/5/4
f 27/6/2 26/5/2 25/14/2 28/8/2
f 30/6/3 32/6/3 40/6/3 38/6/3
f 33/5/2 34/6/2 36/6/2 35/5/2
f 6/8/3 8/6/3 27/6/3 28/8/3
f 8/6/6 4/5/6 26/5/6 27/6/6
f 16/6/6 13/5/6 31/5/6 32/6/6
f 4/3/1 2/2/1 25/2/1 26/3/1
f 20/6/3 24/6/3 36/6/3 34/6/3
f 12/6/3 16/6/3 32/6/3 30/6/3
f 21/3/1 17/3/1 33/3/1 35/3/1
f 17/5/4 20/6/4 34/6/4 33/5/4
f 13/3/1 9/3/1 29/3/1 31/3/1
f 37/5/2 38/6/2 40/6/2 39/5/2
f 29/5/4 30/6/4 38/6/4 37/5/4
f 31/3/1 29/3/1 37/3/1 39/3/1
f 32/6/6 31/5/6 39/5/6 40/6/6
f 41/7/5 42/12/5 44/12/5 43/7/5
f 45/7/5 46/12/5 48/12/5 47/7/5
f 11/7/3 7/7/3 41/7/3 43/7/3
f 7/7/4 3/12/4 42/12/4 41/7/4
f 19/7/3 15/7/3 45/7/3 47/7/3
f 10/12/6 11/7/6 43/7/6 44/12/6
f 18/12/6 19/7/6 47/7/6 48/12/6
f 3/4/1 10/4/1 44/4/1 42/4/1
